Coordinates
version=1
nRows=11
nColumns=40
inDegrees=yes

Units are S.I. units (second, meters, Newtons, ...)
Angles are in degrees.

endheader
time	pelvis_tilt	pelvis_list	pelvis_rotation	pelvis_tx	pelvis_ty	pelvis_tz	hip_flexion_r	hip_adduction_r	hip_rotation_r	knee_angle_r	knee_angle_r_beta	ankle_angle_r	subtalar_angle_r	mtp_angle_r	hip_flexion_l	hip_adduction_l	hip_rotation_l	knee_angle_l	knee_angle_l_beta	ankle_angle_l	subtalar_angle_l	mtp_angle_l	lumbar_extension	lumbar_bending	lumbar_rotation	arm_flex_r	arm_add_r	arm_rot_r	elbow_flex_r	pro_sup_r	wrist_flex_r	wrist_dev_r	arm_flex_l	arm_add_l	arm_rot_l	elbow_flex_l	pro_sup_l	wrist_flex_l	wrist_dev_l
      5.37750000	     -3.61301773	     -4.02713248	    -10.28703762	      1.08568706	      0.92835959	      0.50395381	     16.06399780	      2.89035029	     -4.23105947	     21.89831316	     21.89831316	     11.33426958	      0.08758740	     -2.96578849	      2.73461691	     -8.62324748	    -14.66707204	     20.84335695	     20.84335695	     18.39938567	    -12.95233495	      3.07966075	     -8.39891224	      6.21237737	      0.02900870	    -10.44607185	    -18.32857948	    -12.73353936	     31.51575907	     46.31503093	      0.00000000	      0.00000000	     28.28169722	    -21.91583015	     -8.18236533	     70.35992499	     48.08085607	      0.00000000	      0.00000000
      5.40228571	     -3.59563510	     -4.14940319	     -9.95158865	      1.08551123	      0.92857290	      0.50901516	     15.52618469	      3.27883345	     -4.49660422	     21.69450109	     21.69450109	     11.64007595	      0.05624256	     -2.89001815	      3.02318458	     -9.27818335	    -14.29472775	     22.02209417	     22.02209417	     18.22617646	    -13.16907584	      3.15006458	     -8.42709834	      6.30568347	      0.13399656	     -9.77088851	    -18.77284668	    -12.84763207	     31.79527927	     46.31607816	      0.00000000	      0.00000000	     26.84971188	    -21.45556088	     -8.22238361	     69.73983215	     48.06018934	      0.00000000	      0.00000000
      5.42707143	     -3.63804988	     -4.25995281	     -9.52192223	      1.08514563	      0.92871476	      0.51382769	     14.99818746	      3.65949437	     -4.81966868	     21.35659802	     21.35659802	     11.90267010	     -0.01030878	     -2.76275210	      3.65062591	     -9.98404477	    -13.76890332	     23.61286968	     23.61286968	     18.01872491	    -13.44100488	      3.15092443	     -8.38469850	      6.37315884	      0.05779474	     -8.94348234	    -19.13878602	    -12.94845797	     32.15400622	     46.31314059	      0.00000000	      0.00000000	     25.22576763	    -20.94840441	     -8.39012801	     68.93767468	     48.04283118	      0.00000000	      0.00000000
      5.45185714	     -3.66226191	     -4.36250954	     -9.05716675	      1.08463540	      0.92885347	      0.51848453	     14.45090301	      4.02963822	     -5.13876141	     20.99511485	     20.99511485	     12.14158887	     -0.11261401	     -2.65924202	      4.46128738	    -10.70583829	    -13.13848989	     25.49664832	     25.49664832	     17.67826754	    -13.81872617	      3.01771460	     -8.34116701	      6.43897102	     -0.02187178	     -8.02668104	    -19.50004112	    -13.01898025	     32.54307292	     46.30711602	      0.00000000	      0.00000000	     23.46181042	    -20.35502124	     -8.61508355	     67.98964421	     48.02529633	      0.00000000	      0.00000000
      5.47664286	     -3.58713094	     -4.46539540	     -8.57755602	      1.08402783	      0.92911136	      0.52295358	     13.81478042	      4.37877826	     -5.46626959	     20.64733566	     20.64733566	     12.35615145	     -0.21167298	     -2.61013175	      5.34839880	    -11.42429662	    -12.42496100	     27.64629042	     27.64629042	     17.15096070	    -14.32837927	      2.69773403	     -8.44748508	      6.46467960	      0.08210940	     -7.11164571	    -19.88959864	    -13.07712238	     32.94348971	     46.30073822	      0.00000000	      0.00000000	     21.66095003	    -19.62162875	     -8.63241346	     66.99862495	     47.99343535	      0.00000000	      0.00000000
      5.50142857	     -3.59762869	     -4.55736453	     -8.01970778	      1.08322473	      0.92918565	      0.52722363	     13.27507228	      4.73450828	     -5.78224323	     20.26206678	     20.26206678	     12.51206784	     -0.44020215	     -2.55415423	      6.60890220	    -12.16549889	    -11.51971553	     30.17946141	     30.17946141	     16.38176614	    -14.90791415	      2.09439872	     -8.41563162	      6.49340118	     -0.03411001	     -6.03860874	    -20.20261473	    -13.12139141	     33.49535319	     46.28746397	      0.00000000	      0.00000000	     19.67475104	    -18.91390497	     -8.76225436	     65.64894689	     47.96151791	      0.00000000	      0.00000000
      5.52621429	     -3.36206755	     -4.54555937	     -7.51656906	      1.08252691	      0.92949406	      0.53139735	     12.53300257	      4.95232043	     -5.95989697	     19.99511552	     19.99511552	     12.85551600	     -0.61108043	     -2.58555835	      7.69623739	    -12.75389892	    -10.68598253	     32.85113316	     32.85113316	     15.45145913	    -15.47666348	      1.54587028	     -8.66520426	      6.34953107	      0.20691120	     -5.01116425	    -20.53417066	    -13.17325987	     34.01413179	     46.27695975	      0.00000000	      0.00000000	     17.73680633	    -17.99280004	     -8.62795072	     64.48373003	     47.91560975	      0.00000000	      0.00000000
      5.55100000	     -3.44483429	     -4.73498501	     -6.83425430	      1.08136290	      0.92922360	      0.53533854	     12.14279381	      5.41564860	     -6.37728096	     19.67785903	     19.67785903	     12.92487173	     -1.05195496	     -2.52466652	      9.59090140	    -13.62446284	     -9.44674516	     36.14077740	     36.14077740	     14.10740832	    -16.19123547	      0.52783517	     -8.54800919	      6.50507096	     -0.06492491	     -3.74440644	    -20.82542905	    -13.25452771	     34.87484853	     46.25484319	      0.00000000	      0.00000000	     15.58873067	    -17.32723400	     -8.69925886	     62.66076621	     47.87200731	      0.00000000	      0.00000000
      5.57578571	     -3.34560500	     -4.80387723	     -6.22389633	      1.08029306	      0.92905130	      0.53933275	     11.62812667	      5.81546988	     -6.31325750	     19.45873416	     19.45873416	     13.00776410	     -2.04814465	     -2.66068527	     11.17149690	    -14.38205521	     -8.52632735	     39.07837124	     39.07837124	     11.12373949	    -17.27052722	     -3.95146234	     -8.57554545	      6.46964890	     -0.34133213	     -2.60356350	    -21.15230530	    -12.84034870	     36.64148201	     46.15107649	      0.00000000	      0.00000000	     13.84993082	    -15.98997171	    -10.54268497	     59.31017200	     47.91871931	      0.00000000	      0.00000000
      5.60057143	     -3.18300484	     -4.90828504	     -5.57834699	      1.07904321	      0.92876008	      0.54309632	     11.13512082	      6.14349400	     -6.68746316	     19.40805511	     19.40805511	     13.33274317	     -2.33601460	     -2.70897743	     13.09204228	    -15.07753797	     -7.25685129	     42.70078259	     42.70078259	      9.47572213	    -17.81749469	     -4.41681387	     -8.79644820	      6.42094222	     -0.18797540	     -1.32598464	    -21.48687441	    -12.96641802	     37.51697021	     46.13153086	      0.00000000	      0.00000000	     11.69139708	    -15.15837669	    -10.20032425	     57.90411963	     47.84848578	      0.00000000	      0.00000000
      5.62535714	     -3.13903452	     -4.97509565	     -4.89002888	      1.07760408	      0.92818015	      0.54664228	     10.87897540	      6.44567155	     -6.98666074	     19.48769076	     19.48769076	     13.57014065	     -2.90831965	     -2.68642327	     15.31096425	    -15.69575181	     -5.92695606	     46.41718118	     46.41718118	      7.59843411	    -18.19544403	     -4.79928549	     -8.78174178	      6.41144245	     -0.44779666	      0.17513165	    -21.67927106	    -13.13889866	     38.90394914	     46.09481828	      0.00000000	      0.00000000	      9.38150423	    -14.58125782	     -9.99496885	     55.82340435	     47.77786713	      0.00000000	      0.00000000
